<?xml version="1.0" standalone="no"?>
<!DOCTYPE svg PUBLIC "-//W3C//DTD SVG 20010904//EN"
 "http://www.w3.org/TR/2001/REC-SVG-20010904/DTD/svg10.dtd">
<svg version="1.0" xmlns="http://www.w3.org/2000/svg"
 width="512.000000pt" height="512.000000pt" viewBox="0 0 512.000000 512.000000"
 preserveAspectRatio="xMidYMid meet">
<metadata>
Created by potrace 1.14, written by Peter Selinger 2001-2017
</metadata>
<g transform="translate(0.000000,512.000000) scale(0.100000,-0.100000)"
fill="#000000" stroke="none">
<path d="M3480 5105 c-102 -25 -195 -78 -270 -154 -54 -55 -120 -170 -134
-236 -3 -16 -9 -41 -12 -55 -10 -49 -7 -156 6 -210 12 -54 55 -150 85 -193 8
-12 15 -24 15 -27 0 -3 -341 -5 -758 -5 l-757 0 -50 -24 c-45 -22 -155 -121
-155 -140 0 -4 -64 -124 -143 -267 -79 -142 -161 -290 -181 -329 -21 -38 -54
-99 -74 -134 -78 -141 -74 -276 11 -387 137 -180 411 -170 534 20 22 34 107
184 189 333 l149 273 311 0 312 0 -282 -492 c-155 -271 -369 -645 -475 -830
l-193 -337 -622 -3 -621 -3 -49 -24 c-61 -31 -131 -101 -158 -159 -81 -179 10
-389 194 -449 61 -20 81 -21 793 -19 l730 1 55 26 c86 41 126 89 259 314 68
116 125 212 127 214 1 2 53 -37 115 -85 61 -49 191 -151 288 -227 97 -76 180
-142 184 -147 5 -4 -67 -194 -158 -421 -92 -228 -176 -439 -188 -469 -15 -40
-21 -77 -21 -135 0 -68 4 -89 29 -138 36 -72 108 -139 178 -166 74 -28 195
-24 257 8 100 52 140 103 199 251 24 58 114 285 202 505 88 220 166 414 173
430 71 162 84 247 52 342 -32 95 -27 90 -621 558 -70 55 -131 102 -136 103 -5
2 -9 7 -9 12 0 8 414 718 440 756 14 20 21 11 155 -195 77 -119 157 -235 179
-259 58 -64 146 -102 235 -102 43 0 87 7 113 17 24 9 178 92 343 183 165 92
327 181 360 199 174 96 223 132 261 196 68 116 62 265 -14 364 -39 52 -70 77
-132 108 -46 23 -68 28 -135 28 -100 0 -103 -2 -638 -304 -21 -11 -40 -21 -42
-21 -3 0 -48 66 -102 148 -142 217 -258 394 -331 507 -36 55 -78 119 -93 143
-16 24 -29 44 -29 46 0 2 26 -3 58 -10 136 -33 319 2 432 84 67 49 140 135
175 206 149 302 2 660 -315 766 -80 27 -221 34 -300 15z"/>
</g>
</svg>
